<svg xmlns="http://www.w3.org/2000/svg" version="1.1" xmlns:xlink="http://www.w3.org/1999/xlink" xmlns:svgjs="http://svgjs.com/svgjs" width="1000" height="1000"><rect width="1000" height="1000" rx="200" ry="200" fill="#1f2023"></rect><g transform="matrix(9.345794392523365,0,0,9.345794392523365,3.901648690767388,0.0017350990081581585)"><svg xmlns="http://www.w3.org/2000/svg" version="1.1" xmlns:xlink="http://www.w3.org/1999/xlink" xmlns:svgjs="http://svgjs.com/svgjs" width="107" height="107"><svg xmlns="http://www.w3.org/2000/svg" width="107" height="107" fill="none" viewBox="0 0 107 107"><g fill="#FF4655" clip-path="url(#a)"><path d="M33.088 20.412 19.945 33.555a3.126 3.126 0 0 0 0 4.42l13.152 13.152a3.124 3.124 0 0 0 2.245.915l12.998-.146a3.118 3.118 0 0 0 2.174-.915 3.116 3.116 0 0 0 .915-2.174l.146-12.998c.01-.84-.32-1.65-.915-2.245L37.508 20.412a3.126 3.126 0 0 0-4.42 0Zm12.223 16.642-.097 8.627-8.627.097-10.013-10.013 8.724-8.724L45.31 37.054ZM70.725 54.96l-12.999.144a3.121 3.121 0 0 0-3.089 3.09l-.145 12.998c-.01.84.32 1.65.915 2.245l13.151 13.151a3.126 3.126 0 0 0 4.42 0L86.12 73.445a3.126 3.126 0 0 0 0-4.42l-13.15-13.15a3.124 3.124 0 0 0-2.246-.916Zm.043 25L60.756 69.946l.096-8.628 8.628-.096 10.012 10.012-8.724 8.724ZM48.339 55.103l-13-.145c-.84-.01-1.65.32-2.244.915L19.944 69.024a3.126 3.126 0 0 0 0 4.42l13.143 13.143a3.125 3.125 0 0 0 4.42 0l13.15-13.151a3.124 3.124 0 0 0 .915-2.245l-.143-12.998a3.126 3.126 0 0 0-3.09-3.09Zm-3.03 14.843L35.297 79.958l-8.723-8.723 10.012-10.012 8.628.096.095 8.627Z"></path><path stroke="#FF4655" d="m68.558 20.412-13.15 13.15a3.124 3.124 0 0 0-.916 2.246l.145 12.999a3.126 3.126 0 0 0 3.09 3.09l12.998.144c.84.01 1.65-.32 2.245-.915l13.151-13.151a3.126 3.126 0 0 0 0-4.42L72.978 20.412a3.125 3.125 0 0 0-4.42 0Zm10.933 15.352L69.479 45.776l-8.627-.095-.096-8.628 10.012-10.012 8.723 8.723Z"></path></g><defs><clipPath id="a"><path fill="#fff" d="M0 0h75v75H0z" transform="rotate(-45 64.58 26.75)"></path></clipPath></defs></svg></svg></g></svg>