<svg width="80" height="80" viewBox="0 0 80 80" fill="none" xmlns="http://www.w3.org/2000/svg">
<path fill-rule="evenodd" clip-rule="evenodd" d="M36.8 36.8L0 0H80V80L45.44 45.44L45.0482 44.5585C44.9683 44.2128 44.9488 43.8511 45.1199 43.68L48.8639 39.968C50.1439 38.688 50.5279 37.408 50.4639 36.512C53.8559 39.2 58.2079 41.248 63.4559 36C64.9599 34.496 65.6319 32.768 65.7279 30.912C66.2079 30.72 68.0639 29.792 69.2159 27.168C69.2159 27.168 68.4159 25.664 64.0319 24.832C63.2639 23.424 62.2399 22.08 61.0879 20.928C59.9039 19.776 58.5919 18.752 57.2159 17.984C56.3519 13.6 54.8479 12.832 54.8479 12.832C52.2239 13.952 51.2959 15.808 51.1039 16.32C49.2799 16.384 47.5199 17.088 46.0159 18.56C40.7999 23.808 42.8159 28.16 45.5039 31.552C44.7679 31.488 43.8079 31.744 42.7839 32.512L42.4821 32.8117C41.2085 32.219 39.436 30.8047 40.1601 27.9361C40.1601 27.9361 40.7361 25.8881 39.4881 24.4161C39.4881 24.4161 38.1441 23.0401 38.5601 25.1521C38.5601 25.1521 39.0401 26.4641 38.0801 28.6721C38.0801 28.6721 36.5124 31.717 40.6634 34.6173L38.4649 36.8H36.8Z" fill="#f8fcf8"/>
</svg>
