<svg width="77" height="66" viewBox="0 0 77 66" fill="none" xmlns="http://www.w3.org/2000/svg">
<g clip-path="url(#clip0_492_720)">
<path d="M72.8639 61.109C73.0283 61.1107 73.1913 61.0785 73.3428 61.0146C73.4942 60.9506 73.6309 60.8562 73.7444 60.7372C73.8578 60.6182 73.9456 60.4771 74.0023 60.3228C74.059 60.1685 74.0833 60.0042 74.0739 59.84C74.0739 58.94 73.5309 58.51 72.4169 58.51H70.6169V63.222H71.2939V61.168H72.1259L72.1449 61.193L73.4359 63.222H74.1599L72.7709 61.122L72.8639 61.109ZM72.0809 60.637H71.2959V59.044H72.2909C72.8049 59.044 73.3909 59.128 73.3909 59.801C73.3909 60.575 72.7979 60.637 72.0769 60.637" fill="#BECABE"/>
<path d="M55.204 55.2039H45.604V40.1699C45.604 36.5849 45.54 31.9699 40.611 31.9699C35.611 31.9699 34.846 35.8759 34.846 39.9089V55.2029H25.246V24.2869H34.462V28.5119H34.591C35.5133 26.935 36.8461 25.6377 38.4473 24.7583C40.0486 23.8788 41.8584 23.4502 43.684 23.5179C53.414 23.5179 55.208 29.9179 55.208 38.2439L55.204 55.2039ZM14.414 20.0609C13.3122 20.0611 12.235 19.7346 11.3187 19.1226C10.4025 18.5106 9.68832 17.6407 9.26648 16.6228C8.84464 15.6049 8.73409 14.4848 8.94885 13.4041C9.16362 12.3234 9.69404 11.3306 10.473 10.5513C11.252 9.77208 12.2446 9.24132 13.3252 9.02617C14.4058 8.81101 15.526 8.92114 16.544 9.34261C17.562 9.76408 18.4322 10.478 19.0446 11.394C19.6569 12.31 19.9838 13.3871 19.984 14.4889C19.9841 15.2205 19.8402 15.945 19.5603 16.6209C19.2805 17.2969 18.8702 17.9111 18.353 18.4285C17.8358 18.9459 17.2217 19.3564 16.5458 19.6365C15.87 19.9166 15.1456 20.0608 14.414 20.0609ZM19.214 55.2039H9.604V24.2869H19.214V55.2039ZM59.99 0.00392588H4.78003C3.52692 -0.0102155 2.3194 0.473721 1.42291 1.34939C0.526428 2.22506 0.014317 3.42083 -0.000976562 4.67392V60.1129C0.0137935 61.3666 0.525604 62.5632 1.42206 63.4398C2.31851 64.3164 3.5263 64.8013 4.78003 64.7879H59.99C61.2462 64.8037 62.4574 64.3202 63.3574 63.4436C64.2574 62.5671 64.7726 61.3691 64.79 60.1129V4.66993C64.7721 3.41434 64.2565 2.21722 63.3564 1.34157C62.4564 0.465918 61.2456 -0.0166353 59.99 -7.57339e-05" fill="#BECABE"/>
<path d="M72.1631 56.4109C70.9951 56.4221 69.8791 56.8954 69.0591 57.7273C68.2392 58.5592 67.782 59.6819 67.7876 60.8499C67.7933 62.018 68.2612 63.1362 69.0892 63.9602C69.9171 64.7841 71.0376 65.2467 72.2056 65.2467C73.3737 65.2467 74.4942 64.7841 75.3221 63.9602C76.15 63.1362 76.618 62.018 76.6236 60.8499C76.6292 59.6819 76.1721 58.5592 75.3521 57.7273C74.5321 56.8954 73.4161 56.4221 72.2481 56.4109H72.1631ZM72.1631 64.7409C71.397 64.7536 70.6444 64.5389 70.0003 64.1239C69.3562 63.7089 68.8497 63.1122 68.5447 62.4093C68.2398 61.7064 68.1501 60.9289 68.287 60.175C68.424 59.4211 68.7814 58.7248 69.3141 58.1741C69.8468 57.6233 70.5308 57.2429 71.2797 57.081C72.0286 56.919 72.8088 56.9827 73.5214 57.2641C74.2341 57.5455 74.8473 58.0319 75.2835 58.6618C75.7197 59.2917 75.9593 60.0368 75.9721 60.8029C75.9721 60.8249 75.9721 60.8459 75.9721 60.8679C75.9935 61.8729 75.615 62.8453 74.9196 63.5712C74.2243 64.2971 73.2691 64.7171 72.2641 64.7389H72.1641" fill="#BECABE"/>
</g>
<defs>
<clipPath id="clip0_492_720">
<rect width="76.624" height="65.326" fill="white"/>
</clipPath>
</defs>
</svg>
