<svg width="173" height="35" viewBox="0 0 173 35" fill="none" xmlns="http://www.w3.org/2000/svg">
<path d="M43.44 27.16C41.9466 27.1813 40.7093 26.9573 39.728 26.488C38.7466 25.9973 37.9786 25.2613 37.424 24.28C36.8693 23.2987 36.4746 22.0507 36.24 20.536C36.0053 19.0213 35.888 17.2293 35.888 15.16C35.888 13.176 36.0053 11.4373 36.24 9.944C36.496 8.45067 36.9226 7.21334 37.52 6.232C38.1173 5.22934 38.928 4.48267 39.952 3.992C40.9973 3.50134 42.2986 3.256 43.856 3.256C44.688 3.256 45.552 3.288 46.448 3.35201C47.344 3.416 48.2186 3.512 49.072 3.64001C49.9253 3.768 50.7146 3.91734 51.44 4.08801V6.00801C51.0133 5.944 50.416 5.88 49.648 5.816C48.88 5.73067 48.016 5.66667 47.056 5.624C46.1173 5.58134 45.1786 5.56001 44.24 5.56001C42.704 5.56001 41.5093 5.88 40.656 6.52C39.824 7.13867 39.2373 8.16267 38.896 9.592C38.576 11 38.416 12.8667 38.416 15.192C38.416 17.0693 38.5013 18.6267 38.672 19.864C38.864 21.1013 39.1733 22.0827 39.6 22.808C40.0266 23.5333 40.6026 24.056 41.328 24.376C42.0746 24.6747 43.0133 24.824 44.144 24.824C45.1466 24.824 46.1813 24.696 47.248 24.44C48.3146 24.184 49.2213 23.9067 49.968 23.608V16.664H44.272V14.776C44.6773 14.712 45.168 14.6587 45.744 14.616C46.32 14.5733 46.928 14.5413 47.568 14.52C48.2293 14.4773 48.8906 14.456 49.552 14.456C50.1066 14.456 50.6293 14.4667 51.12 14.488C51.6106 14.488 52.0373 14.52 52.4 14.584V27H50.544L50.16 25.336C49.392 25.72 48.4106 26.1147 47.216 26.52C46.0426 26.9253 44.784 27.1387 43.44 27.16Z" fill="white"/>
<path d="M60.6662 27.192C59.4076 27.192 58.3729 26.8187 57.5622 26.072C56.7516 25.3253 56.3462 24.2693 56.3462 22.904V21.688C56.3462 20.344 56.7836 19.256 57.6582 18.424C58.5542 17.592 59.8982 17.176 61.6902 17.176H67.4822V15.064C67.4822 14.36 67.3542 13.7627 67.0982 13.272C66.8636 12.76 66.4262 12.3653 65.7862 12.088C65.1676 11.8107 64.2609 11.672 63.0662 11.672H57.7542V10.168C58.5009 10.04 59.3649 9.92267 60.3462 9.81601C61.3489 9.70934 62.5222 9.656 63.8662 9.656C65.2529 9.63467 66.4049 9.80534 67.3222 10.168C68.2396 10.5307 68.9116 11.1067 69.3382 11.896C69.7862 12.664 70.0102 13.6773 70.0102 14.936V27H68.0582L67.5782 25.048C67.4929 25.1333 67.2262 25.2827 66.7782 25.496C66.3516 25.7093 65.7969 25.9547 65.1142 26.232C64.4529 26.488 63.7276 26.712 62.9382 26.904C62.1702 27.096 61.4129 27.192 60.6662 27.192ZM61.7222 25.304C62.1062 25.3253 62.5436 25.2827 63.0342 25.176C63.5249 25.0693 64.0262 24.952 64.5382 24.824C65.0502 24.6747 65.5196 24.5253 65.9462 24.376C66.3942 24.2267 66.7569 24.0987 67.0342 23.992C67.3116 23.8853 67.4609 23.832 67.4822 23.832V18.456L62.2662 18.68C61.0502 18.7227 60.1756 19.0213 59.6422 19.576C59.1302 20.1307 58.8742 20.8453 58.8742 21.72V22.488C58.8742 23.1707 59.0129 23.7253 59.2902 24.152C59.5889 24.5573 59.9516 24.8453 60.3782 25.016C60.8262 25.1867 61.2742 25.2827 61.7222 25.304Z" fill="white"/>
<path d="M74.7757 27V9.912H76.7597L77.3037 11.8C78.1571 11.2027 79.1064 10.6907 80.1517 10.264C81.2184 9.83734 82.4024 9.624 83.7037 9.624C84.7704 9.624 85.6771 9.86934 86.4237 10.36C87.1917 10.8293 87.7677 11.4267 88.1517 12.152C88.6851 11.768 89.3251 11.384 90.0717 11C90.8397 10.616 91.6504 10.296 92.5037 10.04C93.3784 9.76267 94.2211 9.624 95.0317 9.624C96.2691 9.624 97.2824 9.89067 98.0717 10.424C98.8611 10.936 99.4371 11.64 99.7997 12.536C100.184 13.4107 100.376 14.392 100.376 15.48V27H97.8477V15.672C97.8477 14.9467 97.6984 14.3067 97.3997 13.752C97.1224 13.176 96.7171 12.728 96.1837 12.408C95.6504 12.088 94.9997 11.928 94.2317 11.928C93.2717 11.928 92.2904 12.1093 91.2877 12.472C90.2851 12.8347 89.3571 13.272 88.5037 13.784C88.6104 14.104 88.6851 14.424 88.7277 14.744C88.7917 15.0427 88.8237 15.3627 88.8237 15.704V27H86.2957V15.672C86.2957 14.9467 86.1464 14.3067 85.8477 13.752C85.5704 13.176 85.1651 12.728 84.6317 12.408C84.1197 12.088 83.4797 11.928 82.7117 11.928C82.0077 11.928 81.3464 12.0027 80.7277 12.152C80.1304 12.28 79.5544 12.472 78.9997 12.728C78.4664 12.9627 77.9011 13.2507 77.3037 13.592V27H74.7757Z" fill="white"/>
<path d="M111.647 27.192C109.855 27.192 108.437 26.9253 107.391 26.392C106.367 25.8587 105.631 24.952 105.183 23.672C104.735 22.392 104.511 20.6427 104.511 18.424C104.511 16.1627 104.735 14.4027 105.183 13.144C105.653 11.864 106.41 10.968 107.455 10.456C108.501 9.94401 109.909 9.68801 111.679 9.68801C113.194 9.68801 114.421 9.85867 115.359 10.2C116.319 10.5413 117.023 11.128 117.471 11.96C117.941 12.7707 118.175 13.9013 118.175 15.352C118.175 16.3547 117.973 17.1653 117.567 17.784C117.183 18.3813 116.618 18.8187 115.871 19.096C115.146 19.352 114.282 19.48 113.279 19.48H107.039C107.061 20.8667 107.21 21.9867 107.487 22.84C107.765 23.672 108.266 24.28 108.991 24.664C109.738 25.0267 110.826 25.208 112.255 25.208H117.759V26.744C116.778 26.872 115.818 26.9787 114.879 27.064C113.941 27.1493 112.863 27.192 111.647 27.192ZM107.007 17.816H113.087C114.047 17.816 114.751 17.6453 115.199 17.304C115.669 16.9413 115.903 16.3013 115.903 15.384C115.903 14.4027 115.754 13.6453 115.455 13.112C115.178 12.5573 114.73 12.1733 114.111 11.96C113.514 11.7253 112.703 11.608 111.679 11.608C110.485 11.608 109.546 11.7893 108.863 12.152C108.181 12.4933 107.701 13.112 107.423 14.008C107.146 14.904 107.007 16.1733 107.007 17.816Z" fill="white"/>
<path d="M122.432 34.584V9.912H124.48L124.96 11.672C125.344 11.3947 125.835 11.1067 126.432 10.808C127.051 10.488 127.712 10.2213 128.416 10.008C129.141 9.79467 129.856 9.68801 130.56 9.68801C131.669 9.68801 132.608 9.93334 133.376 10.424C134.165 10.8933 134.805 11.5333 135.296 12.344C135.787 13.1547 136.139 14.0827 136.352 15.128C136.565 16.1733 136.672 17.272 136.672 18.424C136.672 20.344 136.448 21.9653 136 23.288C135.573 24.5893 134.912 25.5707 134.016 26.232C133.12 26.8933 131.968 27.224 130.56 27.224C129.6 27.224 128.629 27.0747 127.648 26.776C126.688 26.456 125.792 26.0613 124.96 25.592V34.584H122.432ZM129.856 25.08C130.667 25.08 131.392 24.8773 132.032 24.472C132.672 24.0667 133.184 23.384 133.568 22.424C133.952 21.4427 134.144 20.1093 134.144 18.424C134.144 16.824 133.941 15.544 133.536 14.584C133.131 13.6027 132.608 12.8987 131.968 12.472C131.328 12.024 130.624 11.8 129.856 11.8C128.875 11.8 127.968 11.96 127.136 12.28C126.325 12.5787 125.6 12.8987 124.96 13.24V23.704C125.707 24.1093 126.496 24.44 127.328 24.696C128.181 24.952 129.024 25.08 129.856 25.08Z" fill="white"/>
<path d="M144.26 27.192C143.001 27.192 141.967 26.8187 141.156 26.072C140.345 25.3253 139.94 24.2693 139.94 22.904V21.688C139.94 20.344 140.377 19.256 141.252 18.424C142.148 17.592 143.492 17.176 145.284 17.176H151.076V15.064C151.076 14.36 150.948 13.7627 150.692 13.272C150.457 12.76 150.02 12.3653 149.38 12.088C148.761 11.8107 147.855 11.672 146.66 11.672H141.348V10.168C142.095 10.04 142.959 9.92267 143.94 9.81601C144.943 9.70934 146.116 9.656 147.46 9.656C148.847 9.63467 149.999 9.80534 150.916 10.168C151.833 10.5307 152.505 11.1067 152.932 11.896C153.38 12.664 153.604 13.6773 153.604 14.936V27H151.652L151.172 25.048C151.087 25.1333 150.82 25.2827 150.372 25.496C149.945 25.7093 149.391 25.9547 148.708 26.232C148.047 26.488 147.321 26.712 146.532 26.904C145.764 27.096 145.007 27.192 144.26 27.192ZM145.316 25.304C145.7 25.3253 146.137 25.2827 146.628 25.176C147.119 25.0693 147.62 24.952 148.132 24.824C148.644 24.6747 149.113 24.5253 149.54 24.376C149.988 24.2267 150.351 24.0987 150.628 23.992C150.905 23.8853 151.055 23.832 151.076 23.832V18.456L145.86 18.68C144.644 18.7227 143.769 19.0213 143.236 19.576C142.724 20.1307 142.468 20.8453 142.468 21.72V22.488C142.468 23.1707 142.607 23.7253 142.884 24.152C143.183 24.5573 143.545 24.8453 143.972 25.016C144.42 25.1867 144.868 25.2827 145.316 25.304Z" fill="white"/>
<path d="M163.905 27.192C162.497 27.192 161.335 26.8933 160.417 26.296C159.521 25.6773 158.849 24.7387 158.401 23.48C157.975 22.2 157.761 20.568 157.761 18.584C157.761 16.472 157.975 14.7653 158.401 13.464C158.828 12.1413 159.511 11.1813 160.449 10.584C161.388 9.98667 162.647 9.68801 164.225 9.68801C165.185 9.68801 166.124 9.79467 167.041 10.008C167.959 10.2213 168.769 10.456 169.473 10.712V2.58401H172.001V27H169.953L169.473 25.272C169.153 25.5493 168.673 25.8373 168.033 26.136C167.415 26.4347 166.732 26.6907 165.985 26.904C165.26 27.096 164.567 27.192 163.905 27.192ZM164.641 25.112C165.623 25.112 166.508 24.9627 167.297 24.664C168.108 24.344 168.833 24.0133 169.473 23.672V12.504C168.705 12.2693 167.969 12.0773 167.265 11.928C166.561 11.7573 165.772 11.672 164.897 11.672C163.809 11.672 162.924 11.8747 162.241 12.28C161.559 12.6853 161.057 13.3893 160.737 14.392C160.439 15.3733 160.289 16.7387 160.289 18.488C160.289 20.0667 160.428 21.3467 160.705 22.328C161.004 23.3093 161.473 24.024 162.113 24.472C162.753 24.8987 163.596 25.112 164.641 25.112Z" fill="white"/>
<path d="M6.87698 1.36474L1.36473 6.877C0.853168 7.38856 0.853168 8.21892 1.36473 8.73048L6.88069 14.2464C7.12998 14.4957 7.46963 14.6343 7.82225 14.6301L13.2733 14.5689C13.6297 14.5648 13.9517 14.4188 14.1853 14.1853C14.4188 13.9517 14.5652 13.6292 14.5689 13.2734L14.6301 7.82227C14.6343 7.46964 14.4957 7.12999 14.2464 6.8807L8.73046 1.36474C8.2189 0.853182 7.38854 0.853182 6.87698 1.36474ZM12.0032 8.34449L11.9625 11.9625L8.34447 12.0033L4.14495 7.80374L7.80372 4.14496L12.0032 8.34449Z" fill="#FF4655"/>
<path d="M22.6617 15.8539L17.2101 15.9146C16.4975 15.922 15.922 16.4975 15.9146 17.2102L15.8538 22.6617C15.8497 23.0143 15.9882 23.354 16.2375 23.6033L21.753 29.1188C22.2646 29.6303 23.0949 29.6303 23.6065 29.1188L29.1187 23.6065C29.6303 23.0949 29.6303 22.2646 29.1187 21.753L23.6033 16.2375C23.354 15.9882 23.0143 15.8497 22.6617 15.8539ZM22.6798 26.3385L18.4807 22.1395L18.521 18.521L22.1395 18.4807L26.3385 22.6798L22.6798 26.3385Z" fill="#FF4655"/>
<path d="M13.2729 15.9141L7.82132 15.8534C7.4687 15.8492 7.12905 15.9878 6.87975 16.2371L1.36426 21.7526C0.852701 22.2641 0.852701 23.0945 1.36426 23.6061L6.87651 29.1183C7.38853 29.6303 8.21843 29.6299 8.72999 29.1183L14.2455 23.6028C14.4948 23.3535 14.6333 23.0139 14.6292 22.6612L14.5689 17.2102C14.561 16.498 13.9851 15.922 13.2729 15.9141ZM12.0023 22.139L7.80325 26.3381L4.14494 22.6798L8.344 18.4807L11.9625 18.521L12.0023 22.139Z" fill="#FF4655"/>
<path d="M21.753 1.36476L16.2375 6.88025C15.9882 7.12954 15.8497 7.46919 15.8538 7.82182L15.9145 13.2734C15.9224 13.9856 16.4984 14.5615 17.2106 14.5694L22.6617 14.6296C23.0143 14.6338 23.3539 14.4953 23.6032 14.246L29.1187 8.73048C29.6303 8.21892 29.6303 7.38856 29.1187 6.877L23.6065 1.36476C23.0945 0.852731 22.2646 0.853195 21.753 1.36476ZM26.3381 7.80328L22.139 12.0023L18.521 11.9625L18.4807 8.34404L22.6797 4.14498L26.3381 7.80328Z" fill="#FF4655"/>
</svg>
