<svg width="600" height="340" viewBox="0 0 600 340" fill="none" xmlns="http://www.w3.org/2000/svg">
<rect width="600" height="340" rx="8" fill="#837C7D"/>
<g clip-path="url(#clip0_258_441)">
<path d="M286.269 96.9448L273.06 110.088C271.834 111.308 271.834 113.288 273.06 114.508L286.278 127.66C286.875 128.254 287.689 128.585 288.534 128.575L301.596 128.429C302.45 128.419 303.222 128.071 303.782 127.514C304.341 126.957 304.692 126.188 304.701 125.34L304.847 112.342C304.857 111.501 304.525 110.691 303.928 110.097L290.71 96.9448C289.484 95.7251 287.494 95.7251 286.269 96.9448ZM298.553 113.587L298.455 122.214L289.785 122.311L279.722 112.298L288.489 103.574L298.553 113.587Z" fill="#5E5C5C"/>
<path d="M324.094 131.493L311.03 131.637C309.322 131.655 307.943 133.027 307.925 134.726L307.78 147.725C307.77 148.566 308.102 149.376 308.699 149.97L321.916 163.121C323.142 164.341 325.132 164.341 326.358 163.121L339.567 149.978C340.793 148.758 340.793 146.778 339.567 145.558L326.35 132.407C325.753 131.813 324.939 131.483 324.094 131.493ZM324.137 156.492L314.075 146.48L314.171 137.852L322.842 137.756L332.905 147.768L324.137 156.492Z" fill="#5E5C5C"/>
<path d="M301.595 131.636L288.532 131.491C287.687 131.481 286.873 131.812 286.275 132.406L273.058 145.557C271.833 146.777 271.833 148.757 273.058 149.977L286.268 163.12C287.494 164.341 289.483 164.34 290.709 163.12L303.926 149.969C304.523 149.375 304.855 148.565 304.845 147.724L304.701 134.726C304.682 133.028 303.302 131.655 301.595 131.636ZM298.551 146.479L288.488 156.491L279.722 147.768L289.784 137.756L298.455 137.852L298.551 146.479Z" fill="#5E5C5C"/>
<path d="M321.916 96.9448L308.699 110.096C308.102 110.69 307.77 111.5 307.78 112.341L307.925 125.34C307.944 127.038 309.325 128.411 311.031 128.43L324.094 128.573C324.939 128.583 325.753 128.253 326.35 127.659L339.567 114.508C340.793 113.288 340.793 111.308 339.567 110.088L326.358 96.9448C325.131 95.7239 323.142 95.7251 321.916 96.9448ZM332.903 112.297L322.841 122.309L314.171 122.214L314.075 113.586L324.137 103.574L332.903 112.297Z" fill="#5E5C5C"/>
</g>
<path d="M285.989 201.364V213H284.58V201.364H285.989ZM288.632 213V204.273H289.928V205.636H290.041C290.223 205.17 290.517 204.809 290.922 204.551C291.327 204.29 291.814 204.159 292.382 204.159C292.958 204.159 293.437 204.29 293.82 204.551C294.206 204.809 294.507 205.17 294.723 205.636H294.814C295.038 205.186 295.373 204.828 295.82 204.562C296.267 204.294 296.803 204.159 297.428 204.159C298.208 204.159 298.846 204.403 299.342 204.892C299.839 205.377 300.087 206.133 300.087 207.159V213H298.746V207.159C298.746 206.515 298.57 206.055 298.217 205.778C297.865 205.502 297.45 205.364 296.973 205.364C296.36 205.364 295.884 205.549 295.547 205.92C295.21 206.288 295.041 206.754 295.041 207.318V213H293.678V207.023C293.678 206.527 293.517 206.127 293.195 205.824C292.873 205.517 292.458 205.364 291.95 205.364C291.602 205.364 291.276 205.456 290.973 205.642C290.674 205.828 290.432 206.085 290.246 206.415C290.064 206.741 289.973 207.117 289.973 207.545V213H288.632ZM305.107 213.205C304.554 213.205 304.052 213.1 303.601 212.892C303.15 212.68 302.792 212.375 302.527 211.977C302.262 211.576 302.129 211.091 302.129 210.523C302.129 210.023 302.228 209.617 302.425 209.307C302.622 208.992 302.885 208.746 303.215 208.568C303.544 208.39 303.908 208.258 304.306 208.17C304.707 208.08 305.11 208.008 305.516 207.955C306.046 207.886 306.476 207.835 306.806 207.801C307.139 207.763 307.381 207.701 307.533 207.614C307.688 207.527 307.766 207.375 307.766 207.159V207.114C307.766 206.553 307.612 206.117 307.306 205.807C307.003 205.496 306.542 205.341 305.925 205.341C305.285 205.341 304.783 205.481 304.419 205.761C304.056 206.042 303.8 206.341 303.652 206.659L302.379 206.205C302.607 205.674 302.91 205.261 303.289 204.966C303.671 204.667 304.088 204.458 304.539 204.341C304.993 204.22 305.44 204.159 305.879 204.159C306.16 204.159 306.482 204.193 306.845 204.261C307.213 204.326 307.567 204.46 307.908 204.665C308.253 204.869 308.539 205.178 308.766 205.591C308.993 206.004 309.107 206.557 309.107 207.25V213H307.766V211.818H307.698C307.607 212.008 307.455 212.21 307.243 212.426C307.031 212.642 306.749 212.826 306.396 212.977C306.044 213.129 305.614 213.205 305.107 213.205ZM305.311 212C305.842 212 306.289 211.896 306.652 211.688C307.02 211.479 307.296 211.21 307.482 210.881C307.671 210.551 307.766 210.205 307.766 209.841V208.614C307.709 208.682 307.584 208.744 307.391 208.801C307.201 208.854 306.982 208.902 306.732 208.943C306.485 208.981 306.245 209.015 306.01 209.045C305.779 209.072 305.592 209.095 305.448 209.114C305.099 209.159 304.773 209.233 304.47 209.335C304.171 209.434 303.929 209.583 303.743 209.784C303.561 209.981 303.47 210.25 303.47 210.591C303.47 211.057 303.643 211.409 303.987 211.648C304.336 211.883 304.777 212 305.311 212ZM315.077 216.455C314.429 216.455 313.872 216.371 313.406 216.205C312.941 216.042 312.552 215.826 312.242 215.557C311.935 215.292 311.691 215.008 311.509 214.705L312.577 213.955C312.698 214.114 312.851 214.295 313.037 214.5C313.223 214.708 313.476 214.888 313.798 215.04C314.124 215.195 314.55 215.273 315.077 215.273C315.781 215.273 316.363 215.102 316.821 214.761C317.28 214.42 317.509 213.886 317.509 213.159V211.386H317.395C317.297 211.545 317.156 211.742 316.975 211.977C316.797 212.208 316.539 212.415 316.202 212.597C315.869 212.775 315.418 212.864 314.85 212.864C314.145 212.864 313.512 212.697 312.952 212.364C312.395 212.03 311.954 211.545 311.628 210.909C311.306 210.273 311.145 209.5 311.145 208.591C311.145 207.697 311.302 206.919 311.617 206.256C311.931 205.589 312.369 205.074 312.929 204.71C313.49 204.343 314.137 204.159 314.872 204.159C315.441 204.159 315.891 204.254 316.225 204.443C316.562 204.629 316.819 204.841 316.997 205.08C317.179 205.314 317.319 205.508 317.418 205.659H317.554V204.273H318.85V213.25C318.85 214 318.679 214.61 318.338 215.08C318.001 215.553 317.547 215.9 316.975 216.119C316.406 216.343 315.774 216.455 315.077 216.455ZM315.031 211.659C315.569 211.659 316.024 211.536 316.395 211.29C316.766 211.044 317.048 210.689 317.242 210.227C317.435 209.765 317.531 209.212 317.531 208.568C317.531 207.939 317.437 207.384 317.247 206.903C317.058 206.422 316.778 206.045 316.406 205.773C316.035 205.5 315.577 205.364 315.031 205.364C314.463 205.364 313.99 205.508 313.611 205.795C313.236 206.083 312.954 206.47 312.764 206.955C312.579 207.439 312.486 207.977 312.486 208.568C312.486 209.174 312.581 209.71 312.77 210.176C312.963 210.638 313.247 211.002 313.622 211.267C314.001 211.528 314.471 211.659 315.031 211.659ZM324.963 213.182C324.122 213.182 323.397 212.996 322.787 212.625C322.181 212.25 321.713 211.727 321.384 211.057C321.058 210.383 320.895 209.598 320.895 208.705C320.895 207.811 321.058 207.023 321.384 206.341C321.713 205.655 322.172 205.121 322.759 204.739C323.35 204.352 324.039 204.159 324.827 204.159C325.281 204.159 325.73 204.235 326.173 204.386C326.617 204.538 327.02 204.784 327.384 205.125C327.747 205.462 328.037 205.909 328.253 206.466C328.469 207.023 328.577 207.708 328.577 208.523V209.091H321.85V207.932H327.213C327.213 207.439 327.115 207 326.918 206.614C326.725 206.227 326.448 205.922 326.088 205.699C325.732 205.475 325.312 205.364 324.827 205.364C324.293 205.364 323.831 205.496 323.441 205.761C323.054 206.023 322.757 206.364 322.548 206.784C322.34 207.205 322.236 207.655 322.236 208.136V208.909C322.236 209.568 322.35 210.127 322.577 210.585C322.808 211.04 323.128 211.386 323.537 211.625C323.946 211.86 324.422 211.977 324.963 211.977C325.316 211.977 325.634 211.928 325.918 211.83C326.206 211.727 326.454 211.576 326.662 211.375C326.87 211.17 327.031 210.917 327.145 210.614L328.441 210.977C328.304 211.417 328.075 211.803 327.753 212.136C327.431 212.466 327.033 212.723 326.56 212.909C326.086 213.091 325.554 213.182 324.963 213.182ZM279.768 220.364V232H278.404L272.063 222.864H271.95V232H270.541V220.364H271.904L278.268 229.523H278.382V220.364H279.768ZM285.951 232.182C285.163 232.182 284.472 231.994 283.877 231.619C283.286 231.244 282.824 230.72 282.491 230.045C282.161 229.371 281.997 228.583 281.997 227.682C281.997 226.773 282.161 225.979 282.491 225.301C282.824 224.623 283.286 224.097 283.877 223.722C284.472 223.347 285.163 223.159 285.951 223.159C286.739 223.159 287.428 223.347 288.019 223.722C288.614 224.097 289.076 224.623 289.406 225.301C289.739 225.979 289.906 226.773 289.906 227.682C289.906 228.583 289.739 229.371 289.406 230.045C289.076 230.72 288.614 231.244 288.019 231.619C287.428 231.994 286.739 232.182 285.951 232.182ZM285.951 230.977C286.55 230.977 287.042 230.824 287.428 230.517C287.815 230.21 288.101 229.807 288.286 229.307C288.472 228.807 288.565 228.265 288.565 227.682C288.565 227.098 288.472 226.555 288.286 226.051C288.101 225.547 287.815 225.14 287.428 224.83C287.042 224.519 286.55 224.364 285.951 224.364C285.353 224.364 284.86 224.519 284.474 224.83C284.088 225.14 283.802 225.547 283.616 226.051C283.43 226.555 283.338 227.098 283.338 227.682C283.338 228.265 283.43 228.807 283.616 229.307C283.802 229.807 284.088 230.21 284.474 230.517C284.86 230.824 285.353 230.977 285.951 230.977ZM295.748 223.273V224.409H291.225V223.273H295.748ZM292.543 221.182H293.884V229.5C293.884 229.879 293.939 230.163 294.049 230.352C294.163 230.538 294.307 230.663 294.481 230.727C294.659 230.788 294.847 230.818 295.043 230.818C295.191 230.818 295.312 230.811 295.407 230.795C295.502 230.777 295.578 230.761 295.634 230.75L295.907 231.955C295.816 231.989 295.689 232.023 295.526 232.057C295.364 232.095 295.157 232.114 294.907 232.114C294.528 232.114 294.157 232.032 293.793 231.869C293.434 231.706 293.134 231.458 292.896 231.125C292.661 230.792 292.543 230.371 292.543 229.864V221.182ZM302.447 232V220.364H309.424V221.614H303.856V225.545H308.901V226.795H303.856V232H302.447ZM314.561 232.182C313.773 232.182 313.081 231.994 312.487 231.619C311.896 231.244 311.434 230.72 311.1 230.045C310.771 229.371 310.606 228.583 310.606 227.682C310.606 226.773 310.771 225.979 311.1 225.301C311.434 224.623 311.896 224.097 312.487 223.722C313.081 223.347 313.773 223.159 314.561 223.159C315.348 223.159 316.038 223.347 316.629 223.722C317.223 224.097 317.686 224.623 318.015 225.301C318.348 225.979 318.515 226.773 318.515 227.682C318.515 228.583 318.348 229.371 318.015 230.045C317.686 230.72 317.223 231.244 316.629 231.619C316.038 231.994 315.348 232.182 314.561 232.182ZM314.561 230.977C315.159 230.977 315.651 230.824 316.038 230.517C316.424 230.21 316.71 229.807 316.896 229.307C317.081 228.807 317.174 228.265 317.174 227.682C317.174 227.098 317.081 226.555 316.896 226.051C316.71 225.547 316.424 225.14 316.038 224.83C315.651 224.519 315.159 224.364 314.561 224.364C313.962 224.364 313.47 224.519 313.083 224.83C312.697 225.14 312.411 225.547 312.225 226.051C312.04 226.555 311.947 227.098 311.947 227.682C311.947 228.265 312.04 228.807 312.225 229.307C312.411 229.807 312.697 230.21 313.083 230.517C313.47 230.824 313.962 230.977 314.561 230.977ZM326.062 228.432V223.273H327.403V232H326.062V230.523H325.971C325.767 230.966 325.448 231.343 325.017 231.653C324.585 231.96 324.039 232.114 323.38 232.114C322.835 232.114 322.35 231.994 321.926 231.756C321.501 231.513 321.168 231.15 320.926 230.665C320.683 230.176 320.562 229.561 320.562 228.818V223.273H321.903V228.727C321.903 229.364 322.081 229.871 322.437 230.25C322.797 230.629 323.255 230.818 323.812 230.818C324.145 230.818 324.484 230.733 324.829 230.562C325.177 230.392 325.469 230.131 325.704 229.778C325.943 229.426 326.062 228.977 326.062 228.432ZM331.2 226.75V232H329.859V223.273H331.154V224.636H331.268C331.472 224.193 331.783 223.837 332.2 223.568C332.616 223.295 333.154 223.159 333.813 223.159C334.404 223.159 334.921 223.28 335.365 223.523C335.808 223.761 336.152 224.125 336.399 224.614C336.645 225.098 336.768 225.712 336.768 226.455V232H335.427V226.545C335.427 225.86 335.249 225.326 334.893 224.943C334.537 224.557 334.048 224.364 333.427 224.364C332.999 224.364 332.616 224.456 332.279 224.642C331.946 224.828 331.683 225.098 331.49 225.455C331.296 225.811 331.2 226.242 331.2 226.75ZM342.514 232.182C341.786 232.182 341.144 231.998 340.588 231.631C340.031 231.259 339.595 230.737 339.281 230.062C338.966 229.384 338.809 228.583 338.809 227.659C338.809 226.742 338.966 225.947 339.281 225.273C339.595 224.598 340.033 224.078 340.593 223.71C341.154 223.343 341.802 223.159 342.536 223.159C343.105 223.159 343.553 223.254 343.883 223.443C344.216 223.629 344.47 223.841 344.644 224.08C344.822 224.314 344.961 224.508 345.059 224.659H345.173V220.364H346.514V232H345.218V230.659H345.059C344.961 230.818 344.82 231.019 344.639 231.261C344.457 231.5 344.197 231.714 343.86 231.903C343.523 232.089 343.074 232.182 342.514 232.182ZM342.695 230.977C343.233 230.977 343.688 230.837 344.059 230.557C344.43 230.273 344.713 229.881 344.906 229.381C345.099 228.877 345.195 228.295 345.195 227.636C345.195 226.985 345.101 226.415 344.911 225.926C344.722 225.434 344.442 225.051 344.07 224.778C343.699 224.502 343.241 224.364 342.695 224.364C342.127 224.364 341.654 224.509 341.275 224.801C340.9 225.089 340.618 225.481 340.428 225.977C340.243 226.47 340.15 227.023 340.15 227.636C340.15 228.258 340.245 228.822 340.434 229.33C340.627 229.833 340.911 230.235 341.286 230.534C341.665 230.83 342.135 230.977 342.695 230.977Z" fill="#555353"/>
<defs>
<clipPath id="clip0_258_441">
<rect width="75.1877" height="75.1877" fill="white" transform="matrix(0.708868 -0.705341 0.708868 0.705341 253.015 130.033)"/>
</clipPath>
</defs>
</svg>
