<svg width="200" height="252" viewBox="0 0 200 252" fill="none" xmlns="http://www.w3.org/2000/svg">
<rect width="200" height="252" rx="8" fill="#837C7D"/>
<g clip-path="url(#clip0_241_374)">
<path d="M80.0882 55.9448L66.9448 69.0882C65.7251 70.308 65.7251 72.2879 66.9448 73.5076L80.097 86.6598C80.6914 87.2542 81.5013 87.5846 82.3421 87.5746L95.3396 87.4288C96.1892 87.4188 96.9571 87.0708 97.5139 86.514C98.0708 85.9571 98.4199 85.1881 98.4288 84.3396L98.5746 71.3421C98.5845 70.5013 98.2542 69.6914 97.6598 69.097L84.5076 55.9448C83.2878 54.7251 81.3079 54.7251 80.0882 55.9448ZM92.3112 72.5873L92.2139 81.214L83.5872 81.3112L73.5739 71.2979L82.2979 62.574L92.3112 72.5873Z" fill="#5E5C5C"/>
<path d="M117.725 90.4925L104.726 90.6373C103.027 90.6549 101.655 92.0272 101.637 93.7264L101.493 106.725C101.483 107.566 101.813 108.376 102.407 108.97L115.558 122.121C116.778 123.341 118.758 123.341 119.978 122.121L133.121 108.978C134.341 107.758 134.341 105.778 133.121 104.558L119.97 91.4073C119.376 90.8129 118.566 90.4826 117.725 90.4925ZM117.768 115.492L107.756 105.48L107.852 96.8521L116.48 96.7559L126.492 106.768L117.768 115.492Z" fill="#5E5C5C"/>
<path d="M95.3385 90.6362L82.3399 90.4914C81.4991 90.4815 80.6892 90.8118 80.0948 91.4062L66.9437 104.557C65.724 105.777 65.724 107.757 66.9437 108.977L80.0871 122.12C81.3079 123.341 83.2867 123.34 84.5065 122.12L97.6576 108.969C98.252 108.375 98.5823 107.565 98.5724 106.724L98.4288 93.7264C98.41 92.0283 97.0366 90.6549 95.3385 90.6362ZM92.309 105.479L82.2968 115.491L73.5739 106.768L83.5861 96.7559L92.2139 96.8521L92.309 105.479Z" fill="#5E5C5C"/>
<path d="M115.558 55.9448L102.407 69.0959C101.813 69.6903 101.483 70.5002 101.492 71.341L101.637 84.3396C101.656 86.0377 103.029 87.4111 104.727 87.4299L117.725 87.5735C118.566 87.5834 119.376 87.2531 119.97 86.6587L133.121 73.5076C134.341 72.2878 134.341 70.3079 133.121 69.0882L119.978 55.9448C118.757 54.7239 116.778 54.7251 115.558 55.9448ZM126.491 71.2968L116.479 81.309L107.852 81.2139L107.756 72.5861L117.768 62.5739L126.491 71.2968Z" fill="#5E5C5C"/>
</g>
<path d="M79.7088 160.364V172H78.2997V160.364H79.7088ZM82.3523 172V163.273H83.6477V164.636H83.7614C83.9432 164.17 84.2367 163.809 84.642 163.551C85.0473 163.29 85.5341 163.159 86.1023 163.159C86.678 163.159 87.1572 163.29 87.5398 163.551C87.9261 163.809 88.2273 164.17 88.4432 164.636H88.5341C88.7576 164.186 89.0928 163.828 89.5398 163.562C89.9867 163.294 90.5227 163.159 91.1477 163.159C91.928 163.159 92.5663 163.403 93.0625 163.892C93.5587 164.377 93.8068 165.133 93.8068 166.159V172H92.4659V166.159C92.4659 165.515 92.2898 165.055 91.9375 164.778C91.5852 164.502 91.1705 164.364 90.6932 164.364C90.0795 164.364 89.6042 164.549 89.267 164.92C88.9299 165.288 88.7614 165.754 88.7614 166.318V172H87.3977V166.023C87.3977 165.527 87.2367 165.127 86.9148 164.824C86.5928 164.517 86.178 164.364 85.6705 164.364C85.322 164.364 84.9962 164.456 84.6932 164.642C84.3939 164.828 84.1515 165.085 83.9659 165.415C83.7841 165.741 83.6932 166.117 83.6932 166.545V172H82.3523ZM98.8267 172.205C98.2737 172.205 97.7718 172.1 97.321 171.892C96.8703 171.68 96.5123 171.375 96.2472 170.977C95.982 170.576 95.8494 170.091 95.8494 169.523C95.8494 169.023 95.9479 168.617 96.1449 168.307C96.3419 167.992 96.6051 167.746 96.9347 167.568C97.2642 167.39 97.6278 167.258 98.0256 167.17C98.4271 167.08 98.8305 167.008 99.2358 166.955C99.7661 166.886 100.196 166.835 100.526 166.801C100.859 166.763 101.101 166.701 101.253 166.614C101.408 166.527 101.486 166.375 101.486 166.159V166.114C101.486 165.553 101.332 165.117 101.026 164.807C100.723 164.496 100.262 164.341 99.6449 164.341C99.0047 164.341 98.5028 164.481 98.1392 164.761C97.7756 165.042 97.5199 165.341 97.3722 165.659L96.0994 165.205C96.3267 164.674 96.6297 164.261 97.0085 163.966C97.3911 163.667 97.8078 163.458 98.2585 163.341C98.7131 163.22 99.16 163.159 99.5994 163.159C99.8797 163.159 100.202 163.193 100.565 163.261C100.933 163.326 101.287 163.46 101.628 163.665C101.973 163.869 102.259 164.178 102.486 164.591C102.713 165.004 102.827 165.557 102.827 166.25V172H101.486V170.818H101.418C101.327 171.008 101.175 171.21 100.963 171.426C100.751 171.642 100.469 171.826 100.116 171.977C99.7642 172.129 99.3343 172.205 98.8267 172.205ZM99.0312 171C99.5616 171 100.009 170.896 100.372 170.688C100.74 170.479 101.016 170.21 101.202 169.881C101.391 169.551 101.486 169.205 101.486 168.841V167.614C101.429 167.682 101.304 167.744 101.111 167.801C100.921 167.854 100.702 167.902 100.452 167.943C100.205 167.981 99.965 168.015 99.7301 168.045C99.4991 168.072 99.3116 168.095 99.1676 168.114C98.8191 168.159 98.4934 168.233 98.1903 168.335C97.8911 168.434 97.6487 168.583 97.4631 168.784C97.2813 168.981 97.1903 169.25 97.1903 169.591C97.1903 170.057 97.3627 170.409 97.7074 170.648C98.0559 170.883 98.4972 171 99.0312 171ZM108.797 175.455C108.149 175.455 107.592 175.371 107.126 175.205C106.661 175.042 106.272 174.826 105.962 174.557C105.655 174.292 105.411 174.008 105.229 173.705L106.297 172.955C106.418 173.114 106.571 173.295 106.757 173.5C106.943 173.708 107.196 173.888 107.518 174.04C107.844 174.195 108.27 174.273 108.797 174.273C109.501 174.273 110.083 174.102 110.541 173.761C111 173.42 111.229 172.886 111.229 172.159V170.386H111.115C111.017 170.545 110.876 170.742 110.695 170.977C110.517 171.208 110.259 171.415 109.922 171.597C109.589 171.775 109.138 171.864 108.57 171.864C107.865 171.864 107.232 171.697 106.672 171.364C106.115 171.03 105.674 170.545 105.348 169.909C105.026 169.273 104.865 168.5 104.865 167.591C104.865 166.697 105.022 165.919 105.337 165.256C105.651 164.589 106.089 164.074 106.649 163.71C107.21 163.343 107.857 163.159 108.592 163.159C109.161 163.159 109.611 163.254 109.945 163.443C110.282 163.629 110.539 163.841 110.717 164.08C110.899 164.314 111.039 164.508 111.138 164.659H111.274V163.273H112.57V172.25C112.57 173 112.399 173.61 112.058 174.08C111.721 174.553 111.267 174.9 110.695 175.119C110.126 175.343 109.494 175.455 108.797 175.455ZM108.751 170.659C109.289 170.659 109.744 170.536 110.115 170.29C110.486 170.044 110.768 169.689 110.962 169.227C111.155 168.765 111.251 168.212 111.251 167.568C111.251 166.939 111.157 166.384 110.967 165.903C110.778 165.422 110.498 165.045 110.126 164.773C109.755 164.5 109.297 164.364 108.751 164.364C108.183 164.364 107.71 164.508 107.331 164.795C106.956 165.083 106.674 165.47 106.484 165.955C106.299 166.439 106.206 166.977 106.206 167.568C106.206 168.174 106.301 168.71 106.49 169.176C106.683 169.638 106.967 170.002 107.342 170.267C107.721 170.528 108.191 170.659 108.751 170.659ZM118.683 172.182C117.842 172.182 117.117 171.996 116.507 171.625C115.901 171.25 115.433 170.727 115.104 170.057C114.778 169.383 114.615 168.598 114.615 167.705C114.615 166.811 114.778 166.023 115.104 165.341C115.433 164.655 115.892 164.121 116.479 163.739C117.07 163.352 117.759 163.159 118.547 163.159C119.001 163.159 119.45 163.235 119.893 163.386C120.337 163.538 120.74 163.784 121.104 164.125C121.467 164.462 121.757 164.909 121.973 165.466C122.189 166.023 122.297 166.708 122.297 167.523V168.091H115.57V166.932H120.933C120.933 166.439 120.835 166 120.638 165.614C120.445 165.227 120.168 164.922 119.808 164.699C119.452 164.475 119.032 164.364 118.547 164.364C118.013 164.364 117.551 164.496 117.161 164.761C116.774 165.023 116.477 165.364 116.268 165.784C116.06 166.205 115.956 166.655 115.956 167.136V167.909C115.956 168.568 116.07 169.127 116.297 169.585C116.528 170.04 116.848 170.386 117.257 170.625C117.666 170.86 118.142 170.977 118.683 170.977C119.036 170.977 119.354 170.928 119.638 170.83C119.926 170.727 120.174 170.576 120.382 170.375C120.59 170.17 120.751 169.917 120.865 169.614L122.161 169.977C122.024 170.417 121.795 170.803 121.473 171.136C121.151 171.466 120.753 171.723 120.28 171.909C119.806 172.091 119.274 172.182 118.683 172.182ZM73.4879 179.364V191H72.1243L65.7834 181.864H65.6697V191H64.2607V179.364H65.6243L71.9879 188.523H72.1016V179.364H73.4879ZM79.6712 191.182C78.8833 191.182 78.192 190.994 77.5973 190.619C77.0064 190.244 76.5443 189.72 76.2109 189.045C75.8814 188.371 75.7166 187.583 75.7166 186.682C75.7166 185.773 75.8814 184.979 76.2109 184.301C76.5443 183.623 77.0064 183.097 77.5973 182.722C78.192 182.347 78.8833 182.159 79.6712 182.159C80.459 182.159 81.1484 182.347 81.7393 182.722C82.334 183.097 82.7962 183.623 83.1257 184.301C83.459 184.979 83.6257 185.773 83.6257 186.682C83.6257 187.583 83.459 188.371 83.1257 189.045C82.7962 189.72 82.334 190.244 81.7393 190.619C81.1484 190.994 80.459 191.182 79.6712 191.182ZM79.6712 189.977C80.2696 189.977 80.7621 189.824 81.1484 189.517C81.5348 189.21 81.8208 188.807 82.0064 188.307C82.192 187.807 82.2848 187.265 82.2848 186.682C82.2848 186.098 82.192 185.555 82.0064 185.051C81.8208 184.547 81.5348 184.14 81.1484 183.83C80.7621 183.519 80.2696 183.364 79.6712 183.364C79.0727 183.364 78.5803 183.519 78.1939 183.83C77.8075 184.14 77.5215 184.547 77.3359 185.051C77.1503 185.555 77.0575 186.098 77.0575 186.682C77.0575 187.265 77.1503 187.807 77.3359 188.307C77.5215 188.807 77.8075 189.21 78.1939 189.517C78.5803 189.824 79.0727 189.977 79.6712 189.977ZM89.468 182.273V183.409H84.9453V182.273H89.468ZM86.2635 180.182H87.6044V188.5C87.6044 188.879 87.6593 189.163 87.7692 189.352C87.8828 189.538 88.0268 189.663 88.201 189.727C88.379 189.788 88.5665 189.818 88.7635 189.818C88.9112 189.818 89.0324 189.811 89.1271 189.795C89.2218 189.777 89.2976 189.761 89.3544 189.75L89.6271 190.955C89.5362 190.989 89.4093 191.023 89.2464 191.057C89.0836 191.095 88.8771 191.114 88.6271 191.114C88.2483 191.114 87.8771 191.032 87.5135 190.869C87.1536 190.706 86.8544 190.458 86.6158 190.125C86.3809 189.792 86.2635 189.371 86.2635 188.864V180.182ZM96.1669 191V179.364H103.144V180.614H97.576V184.545H102.621V185.795H97.576V191H96.1669ZM108.281 191.182C107.493 191.182 106.801 190.994 106.207 190.619C105.616 190.244 105.154 189.72 104.82 189.045C104.491 188.371 104.326 187.583 104.326 186.682C104.326 185.773 104.491 184.979 104.82 184.301C105.154 183.623 105.616 183.097 106.207 182.722C106.801 182.347 107.493 182.159 108.281 182.159C109.068 182.159 109.758 182.347 110.349 182.722C110.943 183.097 111.406 183.623 111.735 184.301C112.068 184.979 112.235 185.773 112.235 186.682C112.235 187.583 112.068 188.371 111.735 189.045C111.406 189.72 110.943 190.244 110.349 190.619C109.758 190.994 109.068 191.182 108.281 191.182ZM108.281 189.977C108.879 189.977 109.371 189.824 109.758 189.517C110.144 189.21 110.43 188.807 110.616 188.307C110.801 187.807 110.894 187.265 110.894 186.682C110.894 186.098 110.801 185.555 110.616 185.051C110.43 184.547 110.144 184.14 109.758 183.83C109.371 183.519 108.879 183.364 108.281 183.364C107.682 183.364 107.19 183.519 106.803 183.83C106.417 184.14 106.131 184.547 105.945 185.051C105.76 185.555 105.667 186.098 105.667 186.682C105.667 187.265 105.76 187.807 105.945 188.307C106.131 188.807 106.417 189.21 106.803 189.517C107.19 189.824 107.682 189.977 108.281 189.977ZM119.782 187.432V182.273H121.123V191H119.782V189.523H119.691C119.487 189.966 119.168 190.343 118.737 190.653C118.305 190.96 117.759 191.114 117.1 191.114C116.555 191.114 116.07 190.994 115.646 190.756C115.221 190.513 114.888 190.15 114.646 189.665C114.403 189.176 114.282 188.561 114.282 187.818V182.273H115.623V187.727C115.623 188.364 115.801 188.871 116.157 189.25C116.517 189.629 116.975 189.818 117.532 189.818C117.865 189.818 118.204 189.733 118.549 189.562C118.897 189.392 119.189 189.131 119.424 188.778C119.663 188.426 119.782 187.977 119.782 187.432ZM124.92 185.75V191H123.579V182.273H124.874V183.636H124.988C125.192 183.193 125.503 182.837 125.92 182.568C126.336 182.295 126.874 182.159 127.533 182.159C128.124 182.159 128.641 182.28 129.085 182.523C129.528 182.761 129.872 183.125 130.119 183.614C130.365 184.098 130.488 184.712 130.488 185.455V191H129.147V185.545C129.147 184.86 128.969 184.326 128.613 183.943C128.257 183.557 127.768 183.364 127.147 183.364C126.719 183.364 126.336 183.456 125.999 183.642C125.666 183.828 125.403 184.098 125.21 184.455C125.016 184.811 124.92 185.242 124.92 185.75ZM136.234 191.182C135.506 191.182 134.864 190.998 134.308 190.631C133.751 190.259 133.315 189.737 133.001 189.062C132.686 188.384 132.529 187.583 132.529 186.659C132.529 185.742 132.686 184.947 133.001 184.273C133.315 183.598 133.753 183.078 134.313 182.71C134.874 182.343 135.522 182.159 136.256 182.159C136.825 182.159 137.273 182.254 137.603 182.443C137.936 182.629 138.19 182.841 138.364 183.08C138.542 183.314 138.681 183.508 138.779 183.659H138.893V179.364H140.234V191H138.938V189.659H138.779C138.681 189.818 138.54 190.019 138.359 190.261C138.177 190.5 137.917 190.714 137.58 190.903C137.243 191.089 136.794 191.182 136.234 191.182ZM136.415 189.977C136.953 189.977 137.408 189.837 137.779 189.557C138.15 189.273 138.433 188.881 138.626 188.381C138.819 187.877 138.915 187.295 138.915 186.636C138.915 185.985 138.821 185.415 138.631 184.926C138.442 184.434 138.162 184.051 137.79 183.778C137.419 183.502 136.961 183.364 136.415 183.364C135.847 183.364 135.374 183.509 134.995 183.801C134.62 184.089 134.338 184.481 134.148 184.977C133.963 185.47 133.87 186.023 133.87 186.636C133.87 187.258 133.965 187.822 134.154 188.33C134.347 188.833 134.631 189.235 135.006 189.534C135.385 189.83 135.855 189.977 136.415 189.977Z" fill="#555353"/>
<defs>
<clipPath id="clip0_241_374">
<rect width="75" height="75" fill="white" transform="translate(47 89.033) rotate(-45)"/>
</clipPath>
</defs>
</svg>
